<svg width="30" height="30" xmlns="http://www.w3.org/2000/svg" preserveAspectRatio="xMidYMid meet" version="1.0">
 <title>lazyskies</title>
 <g id="Layer_1">
  <title>Layer 1</title>
  <path id="svg_1" d="m25.54871,12.1796c-0.09913,-4.18356 -3.51952,-7.54427 -7.72547,-7.5464c-2.81178,0.00213 -5.26756,1.50502 -6.61696,3.74975c-0.6342,-0.34854 -1.36432,-0.55212 -2.14241,-0.55212c-2.42913,0.00213 -4.40526,1.92604 -4.49373,4.33385c-2.55064,0.83778 -4.39674,3.22427 -4.39887,6.06057c0,3.53018 2.86401,6.39525 6.39525,6.39525l0,-0.00213l16.92077,0c3.53018,0 6.39525,-2.86507 6.39525,-6.39525c-0.00426,-2.81178 -1.81838,-5.18762 -4.33385,-6.04351zm-2.06353,10.30915l-16.91971,0c-2.35452,-0.0064 -4.2603,-1.91111 -4.26457,-4.2635c-0.00213,-2.11363 1.54552,-3.8574 3.57068,-4.19209c0.28246,-0.04583 0.53507,-0.20252 0.70028,-0.44127c0.16521,-0.23662 0.22597,-0.52974 0.17374,-0.8122c-0.02984,-0.15882 -0.04796,-0.30697 -0.04796,-0.45193c0.00426,-1.3057 1.06055,-2.36305 2.36624,-2.36518c0.68962,0 1.29717,0.29631 1.74057,0.77915c0.24835,0.27393 0.62567,0.3997 0.98807,0.33042c0.36453,-0.07035 0.66724,-0.32829 0.79727,-0.67257c0.79834,-2.12322 2.83736,-3.63677 5.23451,-3.63464c3.08891,0.00426 5.58945,2.50587 5.59691,5.59585c0,0.17054 -0.00959,0.34641 -0.02771,0.52867c-0.05329,0.55212 0.32509,1.04882 0.86762,1.15008c1.98146,0.36773 3.48861,2.09551 3.48648,4.18143c-0.00533,2.35665 -1.90792,4.26137 -4.26244,4.26777z" stroke-dasharray="5,2,2,2,2,2" stroke-width="0" stroke="#000" fill="#898989"/>
 </g>
</svg>